<?xml version="1.0" encoding="UTF-8" standalone="no"?>
<!-- Created with Inkscape (http://www.inkscape.org/) -->

<svg
   xmlns:dc="http://purl.org/dc/elements/1.1/"
   xmlns:cc="http://creativecommons.org/ns#"
   xmlns:rdf="http://www.w3.org/1999/02/22-rdf-syntax-ns#"
   xmlns:svg="http://www.w3.org/2000/svg"
   xmlns="http://www.w3.org/2000/svg"
   xmlns:sodipodi="http://sodipodi.sourceforge.net/DTD/sodipodi-0.dtd"
   xmlns:inkscape="http://www.inkscape.org/namespaces/inkscape"
   width="210mm"
   height="297mm"
   viewBox="0 0 210 297"
   version="1.1"
   id="svg8"
   inkscape:version="0.92.3 (2405546, 2018-03-11)"
   sodipodi:docname="hello.svg">
  <defs
     id="defs2" />
  <sodipodi:namedview
     id="base"
     pagecolor="#ffffff"
     bordercolor="#666666"
     borderopacity="1.0"
     inkscape:pageopacity="0.0"
     inkscape:pageshadow="2"
     inkscape:zoom="7.9195959"
     inkscape:cx="286.87416"
     inkscape:cy="728.49835"
     inkscape:document-units="mm"
     inkscape:current-layer="layer1"
     showgrid="false"
     inkscape:window-width="3840"
     inkscape:window-height="2066"
     inkscape:window-x="2149"
     inkscape:window-y="966"
     inkscape:window-maximized="1" />
  <metadata
     id="metadata5">
    <rdf:RDF>
      <cc:Work
         rdf:about="">
        <dc:format>image/svg+xml</dc:format>
        <dc:type
           rdf:resource="http://purl.org/dc/dcmitype/StillImage" />
        <dc:title></dc:title>
      </cc:Work>
    </rdf:RDF>
  </metadata>
  <g
     inkscape:label="Layer 1"
     inkscape:groupmode="layer"
     id="layer1">
    <g
       aria-label="สวัสดี"
       style="font-style:normal;font-variant:normal;font-weight:normal;font-stretch:normal;font-size:10.58333302px;line-height:1.25;font-family:sans-serif;-inkscape-font-specification:'sans-serif, Normal';font-variant-ligatures:normal;font-variant-caps:normal;font-variant-numeric:normal;font-feature-settings:normal;text-align:start;letter-spacing:0px;word-spacing:0px;writing-mode:lr-tb;text-anchor:start;fill:#000000;fill-opacity:1;stroke:none;stroke-width:0.26458332"
       id="text271">
      <path
         d="m 73.295433,92.298083 q -0.165365,0.713135 -0.888835,1.400431 0.465088,0.604615 0.465088,1.53479 v 3.586345 h -0.976684 q -0.919841,-1.746664 -1.198894,-2.196249 -0.279052,-0.454752 -0.578776,-0.697631 -0.299723,-0.248047 -0.578776,-0.248047 -0.268717,0 -0.439249,0.180867 -0.165365,0.180868 -0.165365,0.465088 v 0.687297 q 0.160197,-0.06201 0.366903,-0.06201 0.408244,0 0.697632,0.28422 0.289388,0.284221 0.289388,0.687297 0,0.403076 -0.294556,0.692464 -0.289388,0.289388 -0.692464,0.289388 -0.609782,0 -0.976685,-0.37207 -0.366902,-0.372071 -0.366902,-1.012858 v -1.173055 q 0,-0.754476 0.397908,-1.152385 0.403076,-0.403076 1.116211,-0.403076 0.490926,0 0.904338,0.315226 0.413411,0.315227 0.65629,0.7028 0.248047,0.387573 0.862997,1.586466 v -2.160075 q 0,-0.552937 -0.24288,-0.909505 -0.315226,0.227377 -0.868164,0.485759 l -0.242879,-0.341065 q 0.341065,-0.1757 0.707967,-0.527099 -0.361735,-0.211874 -0.847493,-0.211874 -1.064535,0 -2.092896,0.687297 h -0.05168 v -1.090373 q 1.116211,-0.444417 2.134236,-0.444417 0.909506,0 1.483114,0.361735 0.423747,-0.573609 0.423747,-0.945679 z m -3.994588,6.025472 q 0.165364,0 0.279052,-0.113688 0.113689,-0.118856 0.113689,-0.289388 0,-0.155029 -0.118856,-0.268718 -0.113688,-0.113688 -0.273885,-0.113688 -0.15503,0 -0.273885,0.113688 -0.113688,0.113689 -0.113688,0.268718 0,0.170532 0.113688,0.289388 0.113688,0.113688 0.273885,0.113688 z"
         style="font-style:normal;font-variant:normal;font-weight:normal;font-stretch:normal;font-size:10.58333302px;font-family:sans-serif;-inkscape-font-specification:'sans-serif, Normal';font-variant-ligatures:normal;font-variant-caps:normal;font-variant-numeric:normal;font-feature-settings:normal;text-align:start;writing-mode:lr-tb;text-anchor:start;stroke-width:0.26458332"
         id="path273" />
      <path
         d="m 77.910138,97.517403 q 0,0.640787 -0.366903,1.012858 -0.361735,0.37207 -0.976684,0.37207 -0.403076,0 -0.692464,-0.289388 -0.289388,-0.289388 -0.289388,-0.692464 0,-0.403076 0.289388,-0.687297 0.289388,-0.28422 0.692464,-0.28422 0.211873,0 0.37207,0.06201 v -1.896525 q 0,-0.666626 -0.320394,-1.018026 -0.315226,-0.356567 -0.873331,-0.356567 -0.852662,0 -1.746664,0.527099 h -0.06718 v -1.023193 q 0.914673,-0.3514 1.813843,-0.3514 2.165242,0 2.165242,2.160075 z m -1.343587,0.806152 q 0.165364,0 0.279053,-0.113688 0.113688,-0.118856 0.113688,-0.289388 0,-0.155029 -0.118856,-0.268718 -0.113688,-0.113688 -0.273885,-0.113688 -0.160197,0 -0.279053,0.113688 -0.113688,0.113689 -0.113688,0.268718 0,0.170532 0.113688,0.289388 0.118856,0.113688 0.279053,0.113688 z"
         style="font-style:normal;font-variant:normal;font-weight:normal;font-stretch:normal;font-size:10.58333302px;font-family:sans-serif;-inkscape-font-specification:'sans-serif, Normal';font-variant-ligatures:normal;font-variant-caps:normal;font-variant-numeric:normal;font-feature-settings:normal;text-align:start;writing-mode:lr-tb;text-anchor:start;stroke-width:0.26458332"
         id="path275" />
      <path
         d="m 79.574119,90.783964 q -0.253215,0.852661 -1.023194,1.353922 -0.775146,0.501262 -1.793172,0.501262 -0.74414,0 -1.173055,-0.320394 -0.434082,-0.325562 -0.434082,-0.868164 0,-0.403076 0.294556,-0.692464 0.289388,-0.289388 0.692464,-0.289388 0.397908,0 0.687296,0.289388 0.284221,0.289388 0.284221,0.692464 0,0.428914 -0.201538,0.666626 0.682129,0 1.297078,-0.428915 0.609782,-0.428914 0.7028,-0.904337 z m -3.436483,1.059367 q 0.155029,0 0.268717,-0.113689 0.108521,-0.118855 0.108521,-0.279052 0,-0.160197 -0.108521,-0.273885 -0.113688,-0.118856 -0.268717,-0.118856 -0.170532,0 -0.28422,0.118856 -0.118856,0.113688 -0.118856,0.273885 0,0.160197 0.118856,0.279052 0.113688,0.113689 0.28422,0.113689 z"
         style="font-style:normal;font-variant:normal;font-weight:normal;font-stretch:normal;font-size:10.58333302px;font-family:sans-serif;-inkscape-font-specification:'sans-serif, Normal';font-variant-ligatures:normal;font-variant-caps:normal;font-variant-numeric:normal;font-feature-settings:normal;text-align:start;writing-mode:lr-tb;text-anchor:start;stroke-width:0.26458332"
         id="path277" />
      <path
         d="m 84.850282,92.298083 q -0.165364,0.713135 -0.888834,1.400431 0.465088,0.604615 0.465088,1.53479 v 3.586345 h -0.976685 q -0.91984,-1.746664 -1.198893,-2.196249 -0.279053,-0.454752 -0.578776,-0.697631 -0.299723,-0.248047 -0.578776,-0.248047 -0.268717,0 -0.43925,0.180867 -0.165364,0.180868 -0.165364,0.465088 v 0.687297 q 0.160197,-0.06201 0.366902,-0.06201 0.408244,0 0.697632,0.28422 0.289388,0.284221 0.289388,0.687297 0,0.403076 -0.294555,0.692464 -0.289388,0.289388 -0.692465,0.289388 -0.609781,0 -0.976684,-0.37207 -0.366903,-0.372071 -0.366903,-1.012858 v -1.173055 q 0,-0.754476 0.397909,-1.152385 0.403076,-0.403076 1.116211,-0.403076 0.490926,0 0.904337,0.315226 0.413412,0.315227 0.656291,0.7028 0.248047,0.387573 0.862996,1.586466 v -2.160075 q 0,-0.552937 -0.242879,-0.909505 -0.315226,0.227377 -0.868164,0.485759 l -0.242879,-0.341065 q 0.341064,-0.1757 0.707967,-0.527099 -0.361735,-0.211874 -0.847494,-0.211874 -1.064534,0 -2.092895,0.687297 h -0.05168 v -1.090373 q 1.116211,-0.444417 2.134237,-0.444417 0.909505,0 1.483114,0.361735 0.423746,-0.573609 0.423746,-0.945679 z m -3.994588,6.025472 q 0.165365,0 0.279053,-0.113688 0.113688,-0.118856 0.113688,-0.289388 0,-0.155029 -0.118856,-0.268718 -0.113688,-0.113688 -0.273885,-0.113688 -0.155029,0 -0.273885,0.113688 -0.113688,0.113689 -0.113688,0.268718 0,0.170532 0.113688,0.289388 0.113688,0.113688 0.273885,0.113688 z"
         style="font-style:normal;font-variant:normal;font-weight:normal;font-stretch:normal;font-size:10.58333302px;font-family:sans-serif;-inkscape-font-specification:'sans-serif, Normal';font-variant-ligatures:normal;font-variant-caps:normal;font-variant-numeric:normal;font-feature-settings:normal;text-align:start;writing-mode:lr-tb;text-anchor:start;stroke-width:0.26458332"
         id="path279" />
      <path
         d="m 90.844749,98.819649 h -0.976684 v -3.33313 q 0,-1.684652 -1.524455,-1.684652 -0.728638,0 -1.126546,0.434082 -0.397909,0.428915 -0.397909,1.142049 0,0.625285 0.232544,1.452108 0.06201,0.206706 0.180868,1.059367 l 0.54777,-0.5271 q 0.273885,-0.268717 0.361735,-0.48059 -0.361735,-0.09302 -0.568441,-0.3514 -0.201538,-0.26355 -0.201538,-0.609782 0,-0.403076 0.284221,-0.687297 0.28422,-0.289388 0.687296,-0.289388 0.418579,0 0.697632,0.299724 0.279053,0.294555 0.279053,0.738973 0,0.485758 -0.325562,1.038696 -0.320394,0.54777 -1.27124,1.364258 -0.279053,0.237711 -0.470256,0.434082 H 86.28172 v -0.444418 q 0,-0.428914 -0.19637,-1.364257 -0.227376,-1.064535 -0.227376,-1.62264 0,-1.121379 0.640787,-1.813843 0.645956,-0.692464 1.844849,-0.692464 2.501139,0 2.501139,2.604492 z m -2.480468,-2.506307 q 0.160197,0 0.273885,-0.113688 0.118855,-0.113688 0.118855,-0.268718 0,-0.170532 -0.113688,-0.28422 -0.113688,-0.118856 -0.279052,-0.118856 -0.160197,0 -0.273885,0.118856 -0.113689,0.113688 -0.113689,0.28422 0,0.15503 0.113689,0.268718 0.113688,0.113688 0.273885,0.113688 z"
         style="font-style:normal;font-variant:normal;font-weight:normal;font-stretch:normal;font-size:10.58333302px;font-family:sans-serif;-inkscape-font-specification:'sans-serif, Normal';font-variant-ligatures:normal;font-variant-caps:normal;font-variant-numeric:normal;font-feature-settings:normal;text-align:start;writing-mode:lr-tb;text-anchor:start;stroke-width:0.26458332"
         id="path281" />
      <path
         d="m 90.891257,92.556465 h -4.221964 q 0.19637,-0.604614 0.37207,-0.868164 0.1757,-0.263549 0.465088,-0.475423 0.28422,-0.217041 0.614949,-0.325561 0.330729,-0.108521 0.666626,-0.108521 0.89917,0 1.524455,0.651123 v -1.111043 h 0.578776 z m -0.831991,-0.573608 q -0.124023,-0.279053 -0.485758,-0.449585 -0.361735,-0.1757 -0.785482,-0.1757 -0.428914,0 -0.790649,0.1757 -0.361735,0.170532 -0.480591,0.449585 z"
         style="font-style:normal;font-variant:normal;font-weight:normal;font-stretch:normal;font-size:10.58333302px;font-family:sans-serif;-inkscape-font-specification:'sans-serif, Normal';font-variant-ligatures:normal;font-variant-caps:normal;font-variant-numeric:normal;font-feature-settings:normal;text-align:start;writing-mode:lr-tb;text-anchor:start;stroke-width:0.26458332"
         id="path283" />
    </g>
  </g>
</svg>
